Patient4_TMGait_0pt4_02_left_03_EMG.mot
version=1
nRows=40
nColumns=33
inDegrees=no
endheader
time	1LAddLong	2LGlutMax	3LGlutMed	4LIliopsoas	5LSemiMemb	6LBicFemLong	7LRecFem	8LVastMed	9LVastLat	10LGasMed	11LTibAnt	12lTibPost	13LPeroneusLong	14LSol	15LExtDigLong	16LFlexDigLong	17RAddLong	18RGlutMax	19RGlutMed	20RIliopsoas	21RSemiMemb	22RBicFemLong	23RRecFem	24RVastMed	25RVastLat	26RGasMed	27RTibAnt	28RTibPost	29RPeroneusLong	30RSol	31RExtDigLong	32RFlexDigLong
4.865	0.001831	0.048523	-0.10361	0.017242	0.035553	0.000458	0.1857	-0.002289	-0.018005	0.80597	0.016174	-0.003052	0.064392	0.13809	-0.078735	-0.040283	-0.021362	-0.36057	-0.075226	0.024414	0.43991	-0.10452	-0.097809	0.20233	0.070038	-0.000153	0.063629	0.000458	-0.018463	-0.02243	0.001678	-0.015564
4.866	-0.002289	0.09079	-0.084686	0.00061	0.02655	0.016479	0.1564	0.000916	-0.003357	0.57327	0.019073	-0.004425	0.039215	0.097351	-0.046997	-0.007935	0.017242	-0.34729	0.028534	-0.022583	0.74417	-0.2066	-0.030975	0.16159	0.02655	-0.001831	0.036926	-0.001831	-0.005341	0.00061	0.000153	-0.014801
4.867	-0.000458	0.10666	-0.08667	0.000153	0.007172	0.009308	0.13351	0.00824	-0.008087	0.44601	0.005646	-0.005951	0.062256	0.07843	-0.035706	0.028381	0.064697	-0.32745	0.11231	-0.014801	0.80246	-0.44205	-0.038147	0.053253	0.02182	-0.000458	0.052338	-0.002747	0.10391	-0.043182	-0.002594	-0.011292
4.868	-0.000458	0.087128	-0.1004	0.003357	0.003357	0.01358	0.093994	-0.000153	0.006866	0.24918	0.01236	0.006714	0.033722	0.042419	-0.032806	-0.009766	0.063019	-0.44815	-0.22415	-0.010681	0.76752	-0.56808	-0.069733	0.066223	0.050201	0.005188	-0.004578	-0.004425	0.55588	-0.040741	0.003815	-0.010071
4.869	0.001526	0.0914	-0.075989	-0.008698	-0.016174	0.002899	0.069275	-0.000763	0.00473	-0.21561	0.012512	0.00946	-0.002899	0.11398	-0.031128	-0.003967	0.066833	-0.44113	-0.21866	0.010223	0.57785	-0.42908	0.043488	-0.017242	0.016479	0.007629	-0.018005	-0.006714	0.57388	0.033722	0.000763	-0.010071
4.87	-0.002899	0.12161	-0.056	0.001526	0.014191	-0.007019	0.073395	0.000305	0.001984	-0.63522	0.018158	0.002594	-0.01709	0.15228	-0.019836	-0.013885	0.047302	-0.40649	-0.1152	0.009918	0.23254	-0.26016	0.023346	-0.009766	0.12161	-0.001831	0.066833	-0.004425	-0.32959	-0.055695	0.001373	-0.016785
4.871	-0.001526	0.1297	-0.05249	0.015564	0.018463	-0.007477	0.073242	0.003662	0.010834	-0.30273	0.046997	0.001221	-0.061646	0.17624	-0.018463	0.000458	-0.027924	-0.37994	0.1294	0.001221	-0.078735	-0.14908	-0.073395	0.13504	0.16159	0.004272	0.1239	-0.006409	-0.28641	-0.10727	0.002899	-0.015411
4.872	0.001678	0.15305	-0.047455	0.022583	0.008545	-0.036011	0.054932	0.004883	0.010986	-0.2536	0.058899	-0.002289	-0.06897	0.15396	0.007019	0.001678	-0.065918	-0.32608	-0.001831	-0.012207	-0.086517	-0.072937	-0.005798	0.15579	0.084839	0.002747	0.062103	-0.006104	0.008545	-0.038757	0.003815	-0.007019
4.873	0.005188	0.1474	-0.027466	0.012817	0.026703	-0.083313	0.028687	-0.005798	0.010071	-0.33524	0.062408	0.007935	-0.003052	0.15747	0.019073	-0.002441	-0.026245	-0.40009	-0.1355	0.007477	0.11536	0.009003	0.038147	-0.12405	-0.010071	-0.003204	0.000763	-0.003204	-0.025482	-0.018005	0.002441	-0.00885
4.874	-0.006104	0.14511	-0.051422	0.010223	0.03067	-0.077515	0.014954	-0.000153	0.010681	-0.24963	0.050049	0.012665	0.15991	0.18021	0.010834	-0.003662	0.044708	-0.43366	-0.019684	0.006866	0.12772	0.067596	0.040588	-0.33188	-0.065155	0.001984	0.006409	-0.010834	-0.215	-0.078278	0	-0.011444
4.875	0.000305	0.12863	-0.050812	0.021515	0.03006	-0.091705	0.013885	-0.006866	0.006561	-0.17654	0.014648	0.018311	0.091705	0.15243	-0.011902	-0.003357	0.090637	-0.52261	0.14679	0.048828	0.21957	0.04715	0.037842	-0.38467	-0.10284	-0.002441	-0.079803	-0.002747	-0.32684	-0.082703	0.000916	0.001068
4.876	-0.003204	0.12543	-0.063477	0.028229	0.036469	-0.021667	0.02121	-0.000305	0.016479	-0.11383	-0.035706	0.016785	-0.12756	0.12558	0.005951	0.000153	0.12131	-0.51453	0.10956	0.028534	0.1207	0.072174	0.061188	-0.39597	-0.10941	-0.008698	-0.10025	-0.007782	-0.24338	-0.075226	0.001678	0.001221
4.877	-0.005493	0.10391	-0.040894	0.028687	0.04776	-0.036316	-0.00061	0.006256	-0.016022	-0.049286	-0.010376	0.010681	0.002899	0.08316	0.032806	0.001526	0.024414	-0.50766	0.14374	-0.072021	-0.30518	0.22766	0.021973	-0.27344	-0.088959	-0.007172	-0.056915	-0.010529	-0.38376	-0.08667	0.001526	0.003052
4.878	-0.003052	0.10284	-0.016327	0.010681	0.012512	-0.007172	-0.01297	0.001831	-0.01297	-0.078888	-0.052185	0.004883	0.08667	0.004883	0.029449	0.011597	-0.005493	-0.42404	0.099945	-0.050812	-0.45059	0.3241	-0.04364	-0.081787	-0.030518	-0.018005	0.064545	-0.003204	-0.34271	-0.069122	0.00473	0.000305
4.879	0.009613	0.11871	-0.03952	0.007477	0.005188	0.001831	-0.003815	0.007782	-0.001984	-0.19089	-0.065765	-0.004425	0.075073	0.010529	0.05722	0.00824	-0.057068	-0.33539	0.062866	-0.066071	0.31906	0.26443	-0.09613	0.12192	0.062103	-0.00885	0.088043	-0.009918	-0.008392	-0.04303	0.001831	-0.007019
4.88	0.003357	0.13214	-0.025024	0.027618	0.005798	0.013885	-0.050354	0.008087	-0.00824	-0.32059	-0.027924	0.005188	0.056152	-0.005188	0.10605	-0.001831	-0.007629	-0.1976	0.20706	-0.063782	0.8638	0.060425	-0.12299	0.087738	0.085754	-0.006409	0.04776	-0.00946	0.27039	-0.041351	0.001221	-0.005493
4.881	0.002747	0.13534	-0.021973	0.017395	0.000305	0.012207	-0.069733	0.013885	-0.008392	-0.39261	-0.029602	0.001831	0.092163	-0.044556	0.042114	0.005188	0.026703	-0.080872	0.14206	-0.046082	0.60776	-0.15549	-0.29175	0.05661	0.10925	-0.013123	-0.031586	-0.006714	0.40207	0.007935	0.00351	-0.006409
4.882	0.007477	0.097809	-0.001526	0.000916	-0.007935	0.037231	-0.082397	0.005646	-0.006866	-0.15167	-0.012817	-0.002136	0.014801	0.028992	0.024872	-0.000153	-0.000458	-0.041656	0.014954	0.022736	0.72311	-0.33157	-0.2948	0.016632	0.09964	-0.008545	-0.066071	-0.008392	0.17944	-0.002441	0.002289	-0.002747
4.883	0.001526	0.11276	-0.012054	-0.001221	-0.014954	0.031738	-0.086823	0.00885	-0.026703	0.21347	-0.021057	-0.005188	-0.19028	0.067749	0.015106	-0.002289	0.02594	0.036469	-0.005035	0.12955	0.55725	-0.46875	-0.29129	0.074615	0.063171	-0.013275	-0.062408	-0.007782	0.027313	-0.034637	0.002594	-0.005646
4.884	-0.006256	0.14206	-0.010834	0.014343	-0.014801	-0.003967	-0.08316	0.007172	-0.017853	0.25711	-0.009613	0.001831	-0.13336	0.086517	-0.018463	0.010223	-0.017853	0.072784	-0.013123	0.21439	0.39764	-0.38559	-0.27832	0.1088	0.004883	-0.007935	-0.083923	-0.007782	-0.011749	-0.031433	0.00473	-0.009308
4.885	-0.003815	0.13001	-0.011444	0.025024	-0.014648	-0.079956	-0.092621	-0.004425	-0.015717	0.22308	0.07782	0.002594	-0.037842	0.06073	-0.050964	0.00351	-0.079498	0.028534	0.099182	0.12787	0.11078	-0.25681	-0.19623	0.12466	-0.01236	-0.013123	0.000916	-0.009918	-0.021515	0.015259	0.006104	-0.012817
4.886	-0.002899	0.14786	-0.015106	0.020294	0.017242	-0.11902	-0.12466	0.032043	-0.016174	0.14786	0.047455	0.011292	0.006104	0.052948	-0.078583	-0.009003	-0.10651	-0.004883	0.029297	0.057831	-0.16357	0.090485	-0.21484	0.30884	0.067596	-0.003815	0.18249	-0.005188	-0.034637	-0.003815	-0.002594	-0.015869
4.887	-0.002594	0.15701	-0.013428	0.005646	0.017242	-0.086823	-0.12024	0.002441	0	0.10468	0.015259	0.011597	-0.00061	0.018616	-0.035095	0.001068	0.002289	0.088806	0.3006	0.023956	-0.19226	0.19318	-0.031128	0.21683	0.039978	-0.002441	0.30426	-0.003967	-0.022583	-0.006714	0.004425	-0.01709
4.888	-0.00473	0.15915	-0.000305	0.026398	0.00824	-0.019379	-0.10788	0.012512	-0.009003	0.072174	-0.002136	0.018158	0.092621	0.043945	0.002899	-0.002136	0.12329	0.054321	0.35568	0.028381	-0.25513	-0.10498	0.11139	0.009613	-0.030823	-0.005798	0.36285	-0.005798	-0.003815	-0.045319	0.002594	-0.010223
4.889	-0.000458	0.13489	-0.001678	0.013123	0.011292	-0.006866	-0.11231	0.010986	-0.007629	0.07019	-0.0177	0.009003	0.21942	0.007172	-0.06424	-0.007477	0.12039	0.028534	0.22339	0.06958	-0.24078	-0.069885	0.13779	-0.16525	-0.032654	-0.009155	0.28839	-0.005035	0.033264	-0.026855	-0.000763	-0.012665
4.89	-0.007629	0.10605	0.00885	-0.00412	0.036316	0.021667	-0.11978	0.002747	0.001068	0.001221	-0.017395	0.002594	-0.051422	0.005341	-0.082397	-0.006409	0.021362	0.075226	0.25345	-0.001221	-0.21576	0.05188	0.040741	-0.21347	0.1268	-0.002441	-0.21393	-0.004578	0.078278	-0.039063	0.001984	-0.008545
4.891	0.00412	0.13473	-0.000763	0.004272	0.040741	0.12283	-0.1387	-0.002899	0.017548	0.054626	-0.014954	0.006409	-0.068817	0.011597	-0.11322	-0.009155	-0.030975	0.16953	0.224	-0.031128	-0.18921	0.050964	-0.076141	-0.002441	0.60821	-0.003052	-0.61737	-0.00473	0.024109	-0.050354	0.003204	-0.013885
4.892	-0.003357	0.14511	0.00885	0.010986	0.011292	0.14999	-0.12558	0.00473	0.026245	0.19409	-0.014801	0.009766	-0.066376	-0.055389	-0.092468	-0.009155	-0.081635	0.21255	0.21149	-0.060883	0.32959	-0.031891	-0.17929	0.23148	0.81497	-0.000916	-0.65048	-0.011597	-0.11337	-0.023193	0.017395	-0.011902
4.893	-0.002899	0.13458	0.021667	0.021362	-0.01236	0.019531	-0.12283	0.005493	0.026398	0.4184	-0.001068	0.007629	-0.026855	-0.063171	0.045319	0.001831	-0.081482	0.10178	0.27161	-0.059967	0.85678	-0.033112	-0.17319	0.25085	0.71304	0.001526	-0.41931	-0.00824	-0.093079	-0.003815	0.003967	-0.007019
4.894	0.002594	0.11765	0.013275	0.002289	-0.014801	-0.063171	-0.13733	-0.00351	0.044861	0.69916	0.024414	0.004272	-0.007324	0.021973	0.18249	0.009003	-0.068512	0.049286	0.28046	-0.012512	0.66544	-0.033722	-0.17929	0.27481	0.28625	-0.00061	-0.16464	-0.006256	-0.005798	-0.010529	-0.000916	-0.00885
4.895	0.005493	0.11643	-0.024872	0.014496	-0.005951	-0.094452	-0.15457	-0.006866	0.04303	0.8429	0.037079	-0.00061	0.027008	0.06958	0.1442	0.012665	-0.024567	0.037689	0.27557	0.014801	0.44403	-0.20172	-0.086975	0.2005	-0.1738	-0.003815	-0.026398	0.001984	0.025482	-0.020599	0.00351	-0.009613
4.896	0.000458	0.097046	-0.001068	-0.012665	-0.002899	-0.10513	-0.16083	0.000153	0.034943	0.66269	0.055542	-0.00412	0.13016	-0.023499	0.057678	0.014191	0.073547	0.15243	0.26443	0.041046	0.30579	-0.21835	0.053558	0.19547	-0.50095	0.00473	0.029755	-0.00885	-0.023041	-0.020142	0.006409	-0.004425
4.897	0.003052	0.1152	0.015106	0.00885	0.023956	-0.096283	-0.1355	-0.002899	0.037384	0.40848	0.050354	0.001221	-0.10864	-0.13977	0.018921	0.01358	0.1294	0.17578	0.22064	0.087585	0.16068	-0.21668	0.057068	-0.046692	-0.64865	0.001068	0.066833	-0.005341	-0.053558	-0.019684	0.00351	-0.008698
4.898	0.011292	0.046387	0.028839	0.03067	0.043335	-0.056458	-0.13062	0.001831	0.019531	0.32135	0.044861	-0.012054	-0.1181	-0.17639	0.05722	0.024719	0.14374	0.18845	0.26688	-0.015259	-0.018463	-0.2005	-0.11795	-0.069885	-0.72876	0.001984	0.055542	-0.007019	-0.12894	-0.019684	0.007477	-0.009155
4.899	-0.002594	0.076904	0.019379	0.034027	0.059052	-0.004425	-0.12512	-0.002441	0.017395	-0.083771	0.014191	-0.010376	-0.070343	-0.13229	0.11185	0.057068	0.16861	0.19592	0.21591	-0.05249	-0.22507	-0.098267	-0.11093	-0.007477	-0.68115	0.006714	-0.019226	-0.010071	-0.000916	0.011292	0.005188	-0.002441
4.9	-0.000153	0.079193	0.014343	0.018921	0.037537	0.010986	-0.13077	0.003052	0.027161	-0.95184	-0.016937	-0.007935	0.17563	-0.15839	0.063629	0.11063	0.08606	0.20447	0.19974	-0.10529	-0.087891	-0.011139	0.029602	-0.0177	-0.47287	-0.003204	-0.006256	-0.005646	0.026703	0.018463	0.002441	0.005798
4.901	0.002441	0.12283	0.027618	0.014343	0.019836	0.008392	-0.13123	0.001526	0.018158	-0.37552	-0.023499	0.01297	0.10086	-0.27054	0.006866	-0.53329	-0.005493	0.28534	0.21469	-0.053864	0.36285	-0.0737	0.020599	-0.041962	-0.19333	-0.02182	0.056458	-0.004578	-0.092163	-0.04425	0.00351	-0.003357
4.902	0.002747	0.1413	-0.00946	0.017548	0.014343	-0.022583	-0.14542	0	0.011749	0.10864	0.00061	0.0354	0.045471	-0.26993	-0.007629	0.16159	-0.002594	0.35416	0.16541	0.031738	0.43427	-0.043488	-0.033264	-0.19852	0.091248	-0.029144	0.13763	-0.008392	-0.093689	-0.041656	0.015564	-0.01236
4.903	-0.003357	0.06546	-0.00824	0.014038	0.001526	0.02182	-0.13809	0.002594	0.014343	0.18585	0.003815	0.040436	0.042877	-0.1738	-0.027771	0.071869	-0.04715	0.392	0.18707	0.041351	0.3006	0.11704	-0.15213	-0.082092	0.26871	-0.019073	0.27451	-0.006409	-0.059052	-0.029449	0.001526	-0.008392
4.904	-0.007782	0.059967	0.014801	0.007935	-0.013885	0.0737	-0.13336	0.007935	0.005493	0.68314	0.008698	0.018616	0.04715	-0.13184	-0.037079	0.013733	-0.049744	0.24979	0.18112	-0.090027	0.16754	0.19318	-0.12283	-0.21118	0.3093	-0.018768	0.27741	-0.008545	-0.016022	-0.024567	0.001984	-0.002441
